<?xml version="1.0" standalone="no"?><!-- Generator: Gravit.io --><svg xmlns="http://www.w3.org/2000/svg" xmlns:xlink="http://www.w3.org/1999/xlink" style="isolation:isolate" viewBox="68 121.53 460 82" width="460" height="82"><defs><clipPath id="_clipPath_gtU3xppBBP4ExtwNozzZ6Byxl0VbjuIJ"><rect width="560" height="315"/></clipPath></defs><g clip-path="url(#_clipPath_gtU3xppBBP4ExtwNozzZ6Byxl0VbjuIJ)"><g><path d=" M 496.56 161.866 C 502.541 160.486 508.829 162.863 512.433 167.847 L 484.98 174.059 C 485.977 168.231 490.348 163.246 496.56 161.866 Z  M 512.587 184.718 C 510.439 187.862 507.142 190.086 503.384 190.929 C 497.173 192.31 490.885 189.779 487.434 184.871 L 514.964 178.66 L 519.411 177.663 L 528 175.746 C 527.923 173.905 527.693 172.065 527.31 170.301 C 523.859 155.501 508.752 146.222 493.646 149.673 C 478.539 153.124 469.107 167.847 472.634 182.647 C 476.085 197.447 491.192 206.726 506.298 203.275 C 515.194 201.282 522.095 195.3 525.623 187.709 L 512.587 184.718 Z " fill="rgb(240,85,55)"/><path d=" M 447.789 202.432 L 447.789 163.17 L 439.277 163.17 L 439.277 149.75 L 447.789 149.75 L 447.789 131.346 L 462.205 131.346 L 462.205 149.75 L 473.018 149.75 L 473.018 163.093 L 462.205 163.093 L 462.205 202.355 L 447.789 202.355 L 447.789 202.432 Z " fill="rgb(240,85,55)"/><path d=" M 420.336 202.432 L 434.215 202.432 L 434.215 149.75 L 420.336 149.75 L 420.336 202.432 Z  M 418.495 131.269 C 418.495 126.361 422.329 122.757 427.314 122.757 C 432.298 122.757 435.979 126.438 435.979 131.269 C 435.979 136.177 432.222 139.934 427.314 139.934 C 422.329 139.934 418.495 136.177 418.495 131.269 Z " fill="rgb(240,85,55)"/><path d=" M 415.505 149.903 C 408.373 150.287 404.232 151.36 399.938 154.428 L 399.938 149.75 L 386.058 149.75 L 386.058 202.432 L 399.938 202.432 L 399.938 176.589 C 399.938 168.461 401.932 163.86 415.505 163.4 C 415.505 163.4 415.505 149.903 415.505 149.903 Z " fill="rgb(240,85,55)"/><path d=" M 338.054 176.896 C 338.437 184.564 345.109 191.006 353.237 191.006 C 361.519 191.006 368.344 184.258 368.344 176.206 C 368.344 168.307 361.519 161.483 353.237 161.483 C 345.032 161.483 338.361 168.001 338.054 175.592 C 338.054 175.669 338.054 176.896 338.054 176.896 Z  M 324.481 202.432 L 324.481 124.674 L 338.361 121.53 L 338.361 153.738 C 342.655 150.287 347.716 148.83 353.314 148.83 C 369.111 148.83 381.764 161.023 381.764 176.283 C 381.764 191.466 369.111 203.889 353.314 203.889 C 347.793 203.889 342.655 202.432 338.361 198.981 L 338.361 202.432 L 324.481 202.432 L 324.481 202.432 Z " fill="rgb(240,85,55)"/><path d=" M 294.881 202.432 L 294.881 162.863 L 286.369 162.863 L 286.369 149.75 L 294.881 149.75 L 294.881 131.346 L 309.297 128.125 L 309.297 149.75 L 320.11 149.75 L 320.11 162.863 L 309.297 162.863 L 309.297 202.432 L 294.881 202.432 L 294.881 202.432 Z " fill="rgb(240,85,55)"/><path d=" M 269.422 202.432 L 269.422 174.289 C 269.422 164.09 263.9 161.866 258.379 161.866 C 252.858 161.866 247.337 163.936 247.337 174.059 L 247.337 202.432 L 233.457 202.432 L 233.457 149.75 L 247.337 149.75 L 247.337 153.661 C 250.404 151.437 254.085 148.753 261.446 148.753 C 273.179 148.753 283.378 155.501 283.378 171.988 L 283.378 202.355 L 269.422 202.355 L 269.422 202.432 Z " fill="rgb(240,85,55)"/><path d=" M 198.182 161.866 C 204.394 160.486 210.605 163.016 214.056 167.847 L 186.603 174.059 C 187.523 168.231 191.971 163.246 198.182 161.866 Z  M 214.209 184.718 C 212.062 187.862 208.765 190.086 205.007 190.929 C 198.949 192.31 192.661 189.932 189.057 184.871 L 216.586 178.66 L 221.034 177.663 L 229.623 175.746 C 229.546 173.905 229.316 172.065 228.932 170.301 C 225.405 155.501 210.375 146.222 195.268 149.673 C 180.161 153.124 170.729 167.847 174.257 182.647 C 177.708 197.447 192.814 206.726 207.921 203.275 C 216.816 201.282 223.718 195.3 227.245 187.709 C 227.245 187.632 214.209 184.718 214.209 184.718 Z " fill="rgb(240,85,55)"/><path d=" M 141.513 202.432 L 119.888 149.75 L 134.995 149.75 L 148.644 185.485 L 162.447 149.75 L 177.554 149.75 L 155.929 202.432 L 141.513 202.432 Z " fill="rgb(240,85,55)"/><path d=" M 92.665 161.866 C 98.876 160.486 105.088 163.016 108.539 167.847 L 81.086 174.059 C 82.006 168.154 86.454 163.246 92.665 161.866 Z  M 108.692 184.641 C 106.545 187.785 103.247 190.009 99.49 190.853 C 93.278 192.233 86.99 189.702 83.54 184.795 L 111.069 178.583 L 115.517 177.586 L 124.105 175.669 C 124.029 173.829 123.799 171.988 123.415 170.225 C 119.965 155.425 104.858 146.146 89.751 149.597 C 74.644 153.047 65.212 167.771 68.74 182.647 C 72.267 197.524 87.297 206.726 102.404 203.275 C 111.299 201.282 118.201 195.3 121.728 187.709 L 108.692 184.641 L 108.692 184.641 Z " fill="rgb(240,85,55)"/></g></g></svg>